# xmcd CD database file
#
# Track frame offsets:
#	150
#	13105
#	40481
#	55723
#	67334
#	77933
#	92784
#
# Disc length: 1455 seconds
#
# Revision: 0
# Processed by: cddbd v1.5.1PL2 Copyright (c) Steve Scherf et al.
# Submitted via: Feurio! 1.68 - http://www.feurio.com
#
DISCID=5e05ad07
DTITLE=Ludwing Van - Ludwing Van
DYEAR=1900
DGENRE=
TTITLE0=Tibior
TTITLE1=Me tengo que levantar
TTITLE2=Montevideo
TTITLE3=Mi novia es lo más grande que hay
TTITLE4=Soy un soñador
TTITLE5=Blus
TTITLE6=Requiem
EXTD=Pablo Grinjot
EXTT0=
EXTT1=
EXTT2=
EXTT3=
EXTT4=
EXTT5=
EXTT6=
PLAYORDER=
